<svg width="119" height="107" viewBox="0 0 119 107" fill="none" xmlns="http://www.w3.org/2000/svg">
<path d="M14.875 31.2083H29.75" stroke="#774936" stroke-width="2" stroke-linecap="round" stroke-linejoin="round"/>
<path d="M14.875 49.0417H24.7917" stroke="#774936" stroke-width="2" stroke-linecap="round" stroke-linejoin="round"/>
<path d="M44.7244 39.2378L41.7494 65.9878C41.6116 67.2273 41.7641 68.4791 42.1972 69.6624C42.6303 70.8458 43.3344 71.9343 44.264 72.858C45.1936 73.7817 46.3282 74.52 47.5946 75.0252C48.861 75.5305 50.231 75.7916 51.6165 75.7917H91.184C93.6432 75.7916 96.0146 74.9699 97.8379 73.4862C99.6612 72.0024 100.806 69.9624 101.051 67.7622L104.026 41.0122C104.164 39.7726 104.011 38.5209 103.578 37.3375C103.145 36.1542 102.441 35.0657 101.511 34.142C100.582 33.2183 99.4473 32.48 98.1809 31.9747C96.9145 31.4695 95.5444 31.2084 94.159 31.2083H54.5915C52.1323 31.2084 49.7609 32.0301 47.9376 33.5138C46.1142 34.9976 44.9691 37.0376 44.7244 39.2378Z" stroke="#774936" stroke-width="2" stroke-linecap="round" stroke-linejoin="round"/>
<path d="M48.5918 33.4375L63.3775 48.0608C64.6915 49.3607 66.2773 50.415 68.0445 51.1638C69.8116 51.9125 71.7255 52.3409 73.6768 52.4245C75.6281 52.5081 77.5786 52.2453 79.417 51.6511C81.2553 51.0569 82.9455 50.143 84.391 48.9614L100.654 35.6667" stroke="#774936" stroke-width="2" stroke-linecap="round" stroke-linejoin="round"/>
</svg>
